<?xml version="1.0" encoding="utf-8"?>
<!-- Generator: Adobe Illustrator 25.0.1, SVG Export Plug-In . SVG Version: 6.00 Build 0)  -->
<svg version="1.1" id="Layer_1" xmlns="http://www.w3.org/2000/svg" xmlns:xlink="http://www.w3.org/1999/xlink" x="0px" y="0px"
	 viewBox="0 0 60.6 29" style="enable-background:new 0 0 60.6 29;" xml:space="preserve">
<style type="text/css">
	.st0{fill:#1C3ED3;}
	.st1{fill:#4D4D4D;}
</style>
<desc>Created with Sketch.</desc>
<g>
	<g>
		<g>
			<polygon class="st0" points="31,28.7 15.5,0.2 13.7,3.5 27.4,28.7 			"/>
			<polygon class="st0" points="0,28.8 9.2,28.8 15.5,15.6 18.9,21.7 14.8,21.7 18.9,28.7 26.6,28.7 13.2,4.3 			"/>
		</g>
		<g>
			<polygon class="st1" points="49.6,28.7 34.1,0.2 32.3,3.4 46.1,28.7 			"/>
			<polygon class="st1" points="25.9,15.3 30.4,23.5 34.1,15.6 37.5,21.7 33.4,21.7 37.5,28.7 45.2,28.7 31.9,4.3 			"/>
		</g>
		<g>
			<path class="st0" d="M58.7,13.9c-1.4-1.8-3.1-2.7-5.2-2.7h-5c-0.2,0-0.5-0.1-0.8-0.4c-0.3-0.4-0.5-0.9-0.5-1.5
				c0-0.3,0-0.6,0.1-0.8s0.2-0.5,0.3-0.6c0.1-0.2,0.2-0.3,0.4-0.3c0.1-0.1,0.2-0.1,0.4-0.1h5.1l-3.8-6.9h-1.3
				c-2.1,0-3.8,0.9-5.2,2.7c-1,1.3-1.6,2.8-1.9,4.4l5.4,10.1c0.5,0.1,1,0.2,1.6,0.2h5c0.2,0,0.4,0.1,0.7,0.5s0.5,0.9,0.5,1.5
				c0,0.3,0,0.6-0.1,0.9c-0.1,0.2-0.2,0.4-0.3,0.6c-0.1,0.1-0.3,0.3-0.4,0.3c-0.1,0.1-0.2,0.1-0.4,0.1h-4.5l3.9,7.2h0.6
				c2,0,3.8-0.9,5.2-2.7c1.3-1.7,2-3.8,2-6.1C60.7,17.6,60.1,15.6,58.7,13.9z"/>
			<polygon class="st0" points="57.6,0.4 50.7,0.4 54.5,7.3 			"/>
		</g>
	</g>
</g>
</svg>
